{
	"asset":{
		"generator":"Khronos glTF Blender I/O v3.6.27",
		"version":"2.0"
	},
	"scene":0,
	"scenes":[
		{
			"name":"Scene",
			"nodes":[
				0,
				1,
				2
			]
		}
	],
	"nodes":[
		{
			"mesh":0,
			"name":"Microphone",
			"rotation":[
				0.339042991399765,
				0,
				0,
				0.9407708644866943
			],
			"translation":[
				-2.1434717178344727,
				0.5444944500923157,
				3.446221113204956
			]
		},
		{
			"mesh":1,
			"name":"Plane",
			"rotation":[
				0.339042991399765,
				0,
				0,
				0.9407708644866943
			],
			"scale":[
				3.483701229095459,
				1,
				1
			],
			"translation":[
				-0.05985701084136963,
				0.6736474633216858,
				3.240020990371704
			]
		},
		{
			"mesh":2,
			"name":"Cube.002_Cube.003",
			"rotation":[
				0.17319877445697784,
				0,
				0,
				0.984886884689331
			],
			"scale":[
				0.7578264474868774,
				0.7578264474868774,
				0.7578264474868774
			],
			"translation":[
				0.5445237755775452,
				0.5876250267028809,
				1.442988634109497
			]
		}
	],
	"materials":[
		{
			"doubleSided":true,
			"name":"Material.007",
			"pbrMetallicRoughness":{
				"baseColorFactor":[
					0,
					0,
					0,
					1
				],
				"metallicFactor":0,
				"roughnessFactor":0.5
			}
		},
		{
			"doubleSided":true,
			"name":"Material.006",
			"pbrMetallicRoughness":{
				"baseColorFactor":[
					0.800000011920929,
					0.800000011920929,
					0.800000011920929,
					1
				],
				"metallicFactor":0,
				"roughnessFactor":0.5
			}
		},
		{
			"doubleSided":true,
			"name":"Material.016",
			"pbrMetallicRoughness":{
				"baseColorFactor":[
					0.1237083226442337,
					0.1237083226442337,
					0.1237083226442337,
					1
				],
				"metallicFactor":0,
				"roughnessFactor":0.5
			}
		},
		{
			"doubleSided":true,
			"name":"Material.011",
			"pbrMetallicRoughness":{
				"baseColorFactor":[
					0.10653336346149445,
					0.10653336346149445,
					0.10653336346149445,
					1
				],
				"metallicFactor":0,
				"roughnessFactor":0.5
			}
		},
		{
			"doubleSided":true,
			"name":"Material.012",
			"pbrMetallicRoughness":{
				"baseColorFactor":[
					0.10247203707695007,
					0.10247203707695007,
					0.10247203707695007,
					1
				],
				"metallicFactor":0,
				"roughnessFactor":0.5
			}
		},
		{
			"doubleSided":true,
			"name":"Material.013",
			"pbrMetallicRoughness":{
				"baseColorFactor":[
					0.11068706959486008,
					0.11068706959486008,
					0.11068706959486008,
					1
				],
				"metallicFactor":0,
				"roughnessFactor":0.5
			}
		},
		{
			"doubleSided":true,
			"name":"Material.014",
			"pbrMetallicRoughness":{
				"baseColorFactor":[
					0.13758189976215363,
					0.13758189976215363,
					0.13758189976215363,
					1
				],
				"metallicFactor":0,
				"roughnessFactor":0.5
			}
		},
		{
			"doubleSided":true,
			"name":"Material.015",
			"pbrMetallicRoughness":{
				"baseColorFactor":[
					0.010021275840699673,
					0.010021275840699673,
					0.010021275840699673,
					1
				],
				"metallicFactor":0,
				"roughnessFactor":0.5
			}
		}
	],
	"meshes":[
		{
			"name":"Microphone",
			"primitives":[
				{
					"attributes":{
						"POSITION":0,
						"NORMAL":1,
						"TEXCOORD_0":2
					},
					"indices":3,
					"material":0
				}
			]
		},
		{
			"name":"Plane",
			"primitives":[
				{
					"attributes":{
						"POSITION":4,
						"NORMAL":5,
						"TEXCOORD_0":6
					},
					"indices":7,
					"material":1
				}
			]
		},
		{
			"name":"Cube.002_Cube.003",
			"primitives":[
				{
					"attributes":{
						"POSITION":8,
						"NORMAL":9,
						"TEXCOORD_0":10
					},
					"indices":11,
					"material":2
				},
				{
					"attributes":{
						"POSITION":12,
						"NORMAL":13,
						"TEXCOORD_0":14
					},
					"indices":15,
					"material":3
				},
				{
					"attributes":{
						"POSITION":16,
						"NORMAL":17,
						"TEXCOORD_0":18
					},
					"indices":19,
					"material":4
				},
				{
					"attributes":{
						"POSITION":20,
						"NORMAL":21,
						"TEXCOORD_0":22
					},
					"indices":23,
					"material":5
				},
				{
					"attributes":{
						"POSITION":24,
						"NORMAL":25,
						"TEXCOORD_0":26
					},
					"indices":27,
					"material":6
				},
				{
					"attributes":{
						"POSITION":28,
						"NORMAL":29,
						"TEXCOORD_0":30
					},
					"indices":31,
					"material":7
				}
			]
		}
	],
	"accessors":[
		{
			"bufferView":0,
			"componentType":5126,
			"count":622,
			"max":[
				4.355000019073486,
				0,
				0.009000000543892384
			],
			"min":[
				0.04800000041723251,
				0,
				-0.6910000443458557
			],
			"type":"VEC3"
		},
		{
			"bufferView":1,
			"componentType":5126,
			"count":622,
			"type":"VEC3"
		},
		{
			"bufferView":2,
			"componentType":5126,
			"count":622,
			"type":"VEC2"
		},
		{
			"bufferView":3,
			"componentType":5123,
			"count":1824,
			"type":"SCALAR"
		},
		{
			"bufferView":4,
			"componentType":5126,
			"count":4,
			"max":[
				1,
				0,
				1
			],
			"min":[
				-1,
				0,
				-1
			],
			"type":"VEC3"
		},
		{
			"bufferView":5,
			"componentType":5126,
			"count":4,
			"type":"VEC3"
		},
		{
			"bufferView":6,
			"componentType":5126,
			"count":4,
			"type":"VEC2"
		},
		{
			"bufferView":7,
			"componentType":5123,
			"count":6,
			"type":"SCALAR"
		},
		{
			"bufferView":8,
			"componentType":5126,
			"count":272,
			"max":[
				-2.127527952194214,
				1.2994869947433472,
				-1.942926049232483
			],
			"min":[
				-3.593018054962158,
				0.9563699960708618,
				-3.4084150791168213
			],
			"type":"VEC3"
		},
		{
			"bufferView":9,
			"componentType":5126,
			"count":272,
			"type":"VEC3"
		},
		{
			"bufferView":10,
			"componentType":5126,
			"count":272,
			"type":"VEC2"
		},
		{
			"bufferView":11,
			"componentType":5123,
			"count":432,
			"type":"SCALAR"
		},
		{
			"bufferView":12,
			"componentType":5126,
			"count":72,
			"max":[
				1.7847199440002441,
				0.7115581035614014,
				-3.444626569747925
			],
			"min":[
				-3.284749984741211,
				-1.0824570655822754,
				-4.337667465209961
			],
			"type":"VEC3"
		},
		{
			"bufferView":13,
			"componentType":5126,
			"count":72,
			"type":"VEC3"
		},
		{
			"bufferView":14,
			"componentType":5126,
			"count":72,
			"type":"VEC2"
		},
		{
			"bufferView":15,
			"componentType":5123,
			"count":384,
			"type":"SCALAR"
		},
		{
			"bufferView":16,
			"componentType":5126,
			"count":1152,
			"max":[
				2.0653889179229736,
				1.2449030876159668,
				-1.9503562450408936
			],
			"min":[
				0.5759170055389404,
				0.6995640993118286,
				-3.439828395843506
			],
			"type":"VEC3"
		},
		{
			"bufferView":17,
			"componentType":5126,
			"count":1152,
			"type":"VEC3"
		},
		{
			"bufferView":18,
			"componentType":5126,
			"count":1152,
			"type":"VEC2"
		},
		{
			"bufferView":19,
			"componentType":5123,
			"count":2256,
			"type":"SCALAR"
		},
		{
			"bufferView":20,
			"componentType":5126,
			"count":1300,
			"max":[
				0.9010779857635498,
				1.5010132789611816,
				-1.1198101043701172
			],
			"min":[
				-2.430901050567627,
				0.24114108085632324,
				-3.035635471343994
			],
			"type":"VEC3"
		},
		{
			"bufferView":21,
			"componentType":5126,
			"count":1300,
			"type":"VEC3"
		},
		{
			"bufferView":22,
			"componentType":5126,
			"count":1300,
			"type":"VEC2"
		},
		{
			"bufferView":23,
			"componentType":5123,
			"count":7728,
			"type":"SCALAR"
		},
		{
			"bufferView":24,
			"componentType":5126,
			"count":96,
			"max":[
				-0.4696510136127472,
				1.1010091304779053,
				-2.0410101413726807
			],
			"min":[
				-0.9509980082511902,
				0.5556701421737671,
				-2.5223581790924072
			],
			"type":"VEC3"
		},
		{
			"bufferView":25,
			"componentType":5126,
			"count":96,
			"type":"VEC3"
		},
		{
			"bufferView":26,
			"componentType":5126,
			"count":96,
			"type":"VEC2"
		},
		{
			"bufferView":27,
			"componentType":5123,
			"count":564,
			"type":"SCALAR"
		},
		{
			"bufferView":28,
			"componentType":5126,
			"count":664,
			"max":[
				2.9447989463806152,
				1.1780531406402588,
				0.3398420512676239
			],
			"min":[
				-4.474621772766113,
				-1.0110901594161987,
				-4.08830451965332
			],
			"type":"VEC3"
		},
		{
			"bufferView":29,
			"componentType":5126,
			"count":664,
			"type":"VEC3"
		},
		{
			"bufferView":30,
			"componentType":5126,
			"count":664,
			"type":"VEC2"
		},
		{
			"bufferView":31,
			"componentType":5123,
			"count":3858,
			"type":"SCALAR"
		}
	],
	"bufferViews":[
		{
			"buffer":0,
			"byteLength":7464,
			"byteOffset":0,
			"target":34962
		},
		{
			"buffer":0,
			"byteLength":7464,
			"byteOffset":7464,
			"target":34962
		},
		{
			"buffer":0,
			"byteLength":4976,
			"byteOffset":14928,
			"target":34962
		},
		{
			"buffer":0,
			"byteLength":3648,
			"byteOffset":19904,
			"target":34963
		},
		{
			"buffer":0,
			"byteLength":48,
			"byteOffset":23552,
			"target":34962
		},
		{
			"buffer":0,
			"byteLength":48,
			"byteOffset":23600,
			"target":34962
		},
		{
			"buffer":0,
			"byteLength":32,
			"byteOffset":23648,
			"target":34962
		},
		{
			"buffer":0,
			"byteLength":12,
			"byteOffset":23680,
			"target":34963
		},
		{
			"buffer":0,
			"byteLength":3264,
			"byteOffset":23692,
			"target":34962
		},
		{
			"buffer":0,
			"byteLength":3264,
			"byteOffset":26956,
			"target":34962
		},
		{
			"buffer":0,
			"byteLength":2176,
			"byteOffset":30220,
			"target":34962
		},
		{
			"buffer":0,
			"byteLength":864,
			"byteOffset":32396,
			"target":34963
		},
		{
			"buffer":0,
			"byteLength":864,
			"byteOffset":33260,
			"target":34962
		},
		{
			"buffer":0,
			"byteLength":864,
			"byteOffset":34124,
			"target":34962
		},
		{
			"buffer":0,
			"byteLength":576,
			"byteOffset":34988,
			"target":34962
		},
		{
			"buffer":0,
			"byteLength":768,
			"byteOffset":35564,
			"target":34963
		},
		{
			"buffer":0,
			"byteLength":13824,
			"byteOffset":36332,
			"target":34962
		},
		{
			"buffer":0,
			"byteLength":13824,
			"byteOffset":50156,
			"target":34962
		},
		{
			"buffer":0,
			"byteLength":9216,
			"byteOffset":63980,
			"target":34962
		},
		{
			"buffer":0,
			"byteLength":4512,
			"byteOffset":73196,
			"target":34963
		},
		{
			"buffer":0,
			"byteLength":15600,
			"byteOffset":77708,
			"target":34962
		},
		{
			"buffer":0,
			"byteLength":15600,
			"byteOffset":93308,
			"target":34962
		},
		{
			"buffer":0,
			"byteLength":10400,
			"byteOffset":108908,
			"target":34962
		},
		{
			"buffer":0,
			"byteLength":15456,
			"byteOffset":119308,
			"target":34963
		},
		{
			"buffer":0,
			"byteLength":1152,
			"byteOffset":134764,
			"target":34962
		},
		{
			"buffer":0,
			"byteLength":1152,
			"byteOffset":135916,
			"target":34962
		},
		{
			"buffer":0,
			"byteLength":768,
			"byteOffset":137068,
			"target":34962
		},
		{
			"buffer":0,
			"byteLength":1128,
			"byteOffset":137836,
			"target":34963
		},
		{
			"buffer":0,
			"byteLength":7968,
			"byteOffset":138964,
			"target":34962
		},
		{
			"buffer":0,
			"byteLength":7968,
			"byteOffset":146932,
			"target":34962
		},
		{
			"buffer":0,
			"byteLength":5312,
			"byteOffset":154900,
			"target":34962
		},
		{
			"buffer":0,
			"byteLength":7716,
			"byteOffset":160212,
			"target":34963
		}
	],
	"buffers":[
		{
			"byteLength":167928,
			"uri":"data:application/octet-stream;base64,"
		}
	]
}
