{
	"asset":{
		"generator":"Khronos glTF Blender I/O v3.6.27",
		"version":"2.0"
	},
	"scene":0,
	"scenes":[
		{
			"name":"Scene",
			"nodes":[
				0,
				1,
				2
			]
		}
	],
	"nodes":[
		{
			"mesh":0,
			"name":"microphone",
			"rotation":[
				0,
				-0.6078584790229797,
				0.7940453886985779,
				2.4647201257721463e-07
			],
			"scale":[
				0.13773216307163239,
				0.2759474813938141,
				0.13707862794399261
			],
			"translation":[
				0.01636255532503128,
				2.3286869525909424,
				-0.20403295755386353
			]
		},
		{
			"mesh":1,
			"name":"Microphone",
			"rotation":[
				0.339042991399765,
				0,
				0,
				0.9407708644866943
			],
			"translation":[
				-2.412571430206299,
				0.5444944500923157,
				3.446221113204956
			]
		},
		{
			"mesh":2,
			"name":"Plane",
			"rotation":[
				0.339042991399765,
				0,
				0,
				0.9407708644866943
			],
			"scale":[
				3.483701229095459,
				1,
				1
			],
			"translation":[
				-0.05985701084136963,
				0.6736474633216858,
				3.240020990371704
			]
		}
	],
	"materials":[
		{
			"doubleSided":true,
			"name":"Material.003",
			"pbrMetallicRoughness":{
				"baseColorFactor":[
					0.22696588933467865,
					0.14995980262756348,
					0.08228270709514618,
					1
				],
				"metallicFactor":0,
				"roughnessFactor":0.5
			}
		},
		{
			"doubleSided":true,
			"name":"Material.001",
			"pbrMetallicRoughness":{
				"baseColorFactor":[
					0.3277781009674072,
					0.3277781009674072,
					0.3277781009674072,
					1
				],
				"roughnessFactor":0.30000001192092896
			}
		},
		{
			"doubleSided":true,
			"name":"Material.005",
			"pbrMetallicRoughness":{
				"baseColorFactor":[
					0,
					0,
					0,
					1
				],
				"metallicFactor":0,
				"roughnessFactor":0.30000001192092896
			}
		},
		{
			"doubleSided":true,
			"name":"Material.002",
			"pbrMetallicRoughness":{
				"baseColorFactor":[
					0.061246056109666824,
					0.09758735448122025,
					0.3049873113632202,
					1
				],
				"roughnessFactor":0.4000000059604645
			}
		},
		{
			"doubleSided":true,
			"name":"Material.004",
			"pbrMetallicRoughness":{
				"baseColorFactor":[
					0.6172067523002625,
					0.4969330132007599,
					0.29613831639289856,
					1
				],
				"metallicFactor":0,
				"roughnessFactor":0.5
			}
		},
		{
			"doubleSided":true,
			"name":"Material.007",
			"pbrMetallicRoughness":{
				"baseColorFactor":[
					0,
					0,
					0,
					1
				],
				"metallicFactor":0,
				"roughnessFactor":0.5
			}
		},
		{
			"doubleSided":true,
			"name":"Material.006",
			"pbrMetallicRoughness":{
				"baseColorFactor":[
					0.800000011920929,
					0.800000011920929,
					0.800000011920929,
					1
				],
				"metallicFactor":0,
				"roughnessFactor":0.5
			}
		}
	],
	"meshes":[
		{
			"name":"Circle.007",
			"primitives":[
				{
					"attributes":{
						"POSITION":0,
						"NORMAL":1
					},
					"indices":2,
					"material":0
				},
				{
					"attributes":{
						"POSITION":3,
						"NORMAL":4
					},
					"indices":5,
					"material":1
				},
				{
					"attributes":{
						"POSITION":6,
						"NORMAL":7
					},
					"indices":8,
					"material":2
				},
				{
					"attributes":{
						"POSITION":9,
						"NORMAL":10
					},
					"indices":11,
					"material":3
				},
				{
					"attributes":{
						"POSITION":12,
						"NORMAL":13
					},
					"indices":14,
					"material":4
				}
			]
		},
		{
			"name":"Microphone",
			"primitives":[
				{
					"attributes":{
						"POSITION":15,
						"NORMAL":16,
						"TEXCOORD_0":17
					},
					"indices":18,
					"material":5
				}
			]
		},
		{
			"name":"Plane",
			"primitives":[
				{
					"attributes":{
						"POSITION":19,
						"NORMAL":20,
						"TEXCOORD_0":21
					},
					"indices":22,
					"material":6
				}
			]
		}
	],
	"accessors":[
		{
			"bufferView":0,
			"componentType":5126,
			"count":64,
			"max":[
				0.4674355983734131,
				0.5604978203773499,
				0.4674355685710907
			],
			"min":[
				-0.4674355387687683,
				0.5604978203773499,
				-0.4674355685710907
			],
			"type":"VEC3"
		},
		{
			"bufferView":1,
			"componentType":5126,
			"count":64,
			"type":"VEC3"
		},
		{
			"bufferView":2,
			"componentType":5123,
			"count":282,
			"type":"SCALAR"
		},
		{
			"bufferView":3,
			"componentType":5126,
			"count":17892,
			"max":[
				8.9549560546875,
				0.6700760722160339,
				11.067314147949219
			],
			"min":[
				-8.729084014892578,
				-5.577337265014648,
				-22.08965301513672
			],
			"type":"VEC3"
		},
		{
			"bufferView":4,
			"componentType":5126,
			"count":17892,
			"type":"VEC3"
		},
		{
			"bufferView":5,
			"componentType":5123,
			"count":92484,
			"type":"SCALAR"
		},
		{
			"bufferView":6,
			"componentType":5126,
			"count":387,
			"max":[
				12.425626754760742,
				6.447612762451172,
				19.959197998046875
			],
			"min":[
				-12.396754264831543,
				-5.7818498611450195,
				10.034202575683594
			],
			"type":"VEC3"
		},
		{
			"bufferView":7,
			"componentType":5126,
			"count":387,
			"type":"VEC3"
		},
		{
			"bufferView":8,
			"componentType":5123,
			"count":2100,
			"type":"SCALAR"
		},
		{
			"bufferView":9,
			"componentType":5126,
			"count":340,
			"max":[
				5.546514987945557,
				-0.008943319320678711,
				-1.27239191532135
			],
			"min":[
				-5.411122798919678,
				-5.478170394897461,
				-5.111141204833984
			],
			"type":"VEC3"
		},
		{
			"bufferView":10,
			"componentType":5126,
			"count":340,
			"type":"VEC3"
		},
		{
			"bufferView":11,
			"componentType":5123,
			"count":2040,
			"type":"SCALAR"
		},
		{
			"bufferView":12,
			"componentType":5126,
			"count":381,
			"max":[
				4.913082122802734,
				-0.3251056671142578,
				-2.3532886505126953
			],
			"min":[
				-4.777687072753906,
				-5.162006378173828,
				-21.82723617553711
			],
			"type":"VEC3"
		},
		{
			"bufferView":13,
			"componentType":5126,
			"count":381,
			"type":"VEC3"
		},
		{
			"bufferView":14,
			"componentType":5123,
			"count":2160,
			"type":"SCALAR"
		},
		{
			"bufferView":15,
			"componentType":5126,
			"count":703,
			"max":[
				4.884000301361084,
				0,
				0.23000000417232513
			],
			"min":[
				0.07300000637769699,
				0,
				-0.6820000410079956
			],
			"type":"VEC3"
		},
		{
			"bufferView":16,
			"componentType":5126,
			"count":703,
			"type":"VEC3"
		},
		{
			"bufferView":17,
			"componentType":5126,
			"count":703,
			"type":"VEC2"
		},
		{
			"bufferView":18,
			"componentType":5123,
			"count":2067,
			"type":"SCALAR"
		},
		{
			"bufferView":19,
			"componentType":5126,
			"count":4,
			"max":[
				1,
				0,
				1
			],
			"min":[
				-1,
				0,
				-1
			],
			"type":"VEC3"
		},
		{
			"bufferView":20,
			"componentType":5126,
			"count":4,
			"type":"VEC3"
		},
		{
			"bufferView":21,
			"componentType":5126,
			"count":4,
			"type":"VEC2"
		},
		{
			"bufferView":22,
			"componentType":5123,
			"count":6,
			"type":"SCALAR"
		}
	],
	"bufferViews":[
		{
			"buffer":0,
			"byteLength":768,
			"byteOffset":0,
			"target":34962
		},
		{
			"buffer":0,
			"byteLength":768,
			"byteOffset":768,
			"target":34962
		},
		{
			"buffer":0,
			"byteLength":564,
			"byteOffset":1536,
			"target":34963
		},
		{
			"buffer":0,
			"byteLength":214704,
			"byteOffset":2100,
			"target":34962
		},
		{
			"buffer":0,
			"byteLength":214704,
			"byteOffset":216804,
			"target":34962
		},
		{
			"buffer":0,
			"byteLength":184968,
			"byteOffset":431508,
			"target":34963
		},
		{
			"buffer":0,
			"byteLength":4644,
			"byteOffset":616476,
			"target":34962
		},
		{
			"buffer":0,
			"byteLength":4644,
			"byteOffset":621120,
			"target":34962
		},
		{
			"buffer":0,
			"byteLength":4200,
			"byteOffset":625764,
			"target":34963
		},
		{
			"buffer":0,
			"byteLength":4080,
			"byteOffset":629964,
			"target":34962
		},
		{
			"buffer":0,
			"byteLength":4080,
			"byteOffset":634044,
			"target":34962
		},
		{
			"buffer":0,
			"byteLength":4080,
			"byteOffset":638124,
			"target":34963
		},
		{
			"buffer":0,
			"byteLength":4572,
			"byteOffset":642204,
			"target":34962
		},
		{
			"buffer":0,
			"byteLength":4572,
			"byteOffset":646776,
			"target":34962
		},
		{
			"buffer":0,
			"byteLength":4320,
			"byteOffset":651348,
			"target":34963
		},
		{
			"buffer":0,
			"byteLength":8436,
			"byteOffset":655668,
			"target":34962
		},
		{
			"buffer":0,
			"byteLength":8436,
			"byteOffset":664104,
			"target":34962
		},
		{
			"buffer":0,
			"byteLength":5624,
			"byteOffset":672540,
			"target":34962
		},
		{
			"buffer":0,
			"byteLength":4134,
			"byteOffset":678164,
			"target":34963
		},
		{
			"buffer":0,
			"byteLength":48,
			"byteOffset":682300,
			"target":34962
		},
		{
			"buffer":0,
			"byteLength":48,
			"byteOffset":682348,
			"target":34962
		},
		{
			"buffer":0,
			"byteLength":32,
			"byteOffset":682396,
			"target":34962
		},
		{
			"buffer":0,
			"byteLength":12,
			"byteOffset":682428,
			"target":34963
		}
	],
	"buffers":[
		{
			"byteLength":682440,
			"uri":"data:application/octet-stream;base64,"
		}
	]
}
