{
	"asset":{
		"generator":"Khronos glTF Blender I/O v3.6.27",
		"version":"2.0"
	},
	"scene":0,
	"scenes":[
		{
			"name":"Scene",
			"nodes":[
				4,
				5,
				6
			]
		}
	],
	"nodes":[
		{
			"mesh":0,
			"name":"Object_4",
			"scale":[
				0.8685839772224426,
				0.8685839176177979,
				0.8685839176177979
			],
			"translation":[
				0,
				-0.05472010374069214,
				-0.06206424906849861
			]
		},
		{
			"children":[
				0
			],
			"name":"SM_PSX_Monitor_0",
			"translation":[
				0,
				0.44564491510391235,
				-0.05900326743721962
			]
		},
		{
			"children":[
				1
			],
			"name":"GLTF_SceneRootNode",
			"rotation":[
				0.70710688829422,
				0,
				0,
				0.7071066498756409
			]
		},
		{
			"children":[
				2
			],
			"name":"root"
		},
		{
			"children":[
				3
			],
			"name":"Sketchfab_model",
			"rotation":[
				-0.70710688829422,
				0,
				0,
				0.7071066498756409
			],
			"scale":[
				35.551780700683594,
				35.55178451538086,
				35.55178451538086
			]
		},
		{
			"mesh":1,
			"name":"Microphone",
			"rotation":[
				0.339042991399765,
				0,
				0,
				0.9407708644866943
			],
			"translation":[
				-1.6759618520736694,
				0.5444944500923157,
				3.446221113204956
			]
		},
		{
			"mesh":2,
			"name":"Plane",
			"rotation":[
				0.339042991399765,
				0,
				0,
				0.9407708644866943
			],
			"scale":[
				3.483701229095459,
				1,
				1
			],
			"translation":[
				-0.05985701084136963,
				0.6736474633216858,
				3.240020990371704
			]
		}
	],
	"materials":[
		{
			"doubleSided":true,
			"name":"M_PSX_Monitor",
			"pbrMetallicRoughness":{
				"baseColorTexture":{
					"index":0
				},
				"metallicFactor":0,
				"roughnessFactor":0.5
			}
		},
		{
			"doubleSided":true,
			"name":"Material.007",
			"pbrMetallicRoughness":{
				"baseColorFactor":[
					0,
					0,
					0,
					1
				],
				"metallicFactor":0,
				"roughnessFactor":0.5
			}
		},
		{
			"doubleSided":true,
			"name":"Material.006",
			"pbrMetallicRoughness":{
				"baseColorFactor":[
					0.800000011920929,
					0.800000011920929,
					0.800000011920929,
					1
				],
				"metallicFactor":0,
				"roughnessFactor":0.5
			}
		}
	],
	"meshes":[
		{
			"name":"Object_0.002",
			"primitives":[
				{
					"attributes":{
						"POSITION":0,
						"NORMAL":1,
						"TEXCOORD_0":2
					},
					"indices":3,
					"material":0
				}
			]
		},
		{
			"name":"Microphone",
			"primitives":[
				{
					"attributes":{
						"POSITION":4,
						"NORMAL":5,
						"TEXCOORD_0":6
					},
					"indices":7,
					"material":1
				}
			]
		},
		{
			"name":"Plane",
			"primitives":[
				{
					"attributes":{
						"POSITION":8,
						"NORMAL":9,
						"TEXCOORD_0":10
					},
					"indices":11,
					"material":2
				}
			]
		}
	],
	"textures":[
		{
			"sampler":0,
			"source":0
		}
	],
	"images":[
		{
			"bufferView":4,
			"mimeType":"image/png",
			"name":"M_PSX_Monitor_baseColor"
		}
	],
	"accessors":[
		{
			"bufferView":0,
			"componentType":5126,
			"count":144,
			"max":[
				0.3596893548965454,
				0.06480789184570312,
				0.13107144832611084
			],
			"min":[
				-0.3596893548965454,
				-0.4455685615539551,
				-0.13901665806770325
			],
			"type":"VEC3"
		},
		{
			"bufferView":1,
			"componentType":5126,
			"count":144,
			"type":"VEC3"
		},
		{
			"bufferView":2,
			"componentType":5126,
			"count":144,
			"type":"VEC2"
		},
		{
			"bufferView":3,
			"componentType":5123,
			"count":234,
			"type":"SCALAR"
		},
		{
			"bufferView":5,
			"componentType":5126,
			"count":429,
			"max":[
				3.3340001106262207,
				0,
				0.009000000543892384
			],
			"min":[
				0.07300000637769699,
				0,
				-0.6820000410079956
			],
			"type":"VEC3"
		},
		{
			"bufferView":6,
			"componentType":5126,
			"count":429,
			"type":"VEC3"
		},
		{
			"bufferView":7,
			"componentType":5126,
			"count":429,
			"type":"VEC2"
		},
		{
			"bufferView":8,
			"componentType":5123,
			"count":1251,
			"type":"SCALAR"
		},
		{
			"bufferView":9,
			"componentType":5126,
			"count":4,
			"max":[
				1,
				0,
				1
			],
			"min":[
				-1,
				0,
				-1
			],
			"type":"VEC3"
		},
		{
			"bufferView":10,
			"componentType":5126,
			"count":4,
			"type":"VEC3"
		},
		{
			"bufferView":11,
			"componentType":5126,
			"count":4,
			"type":"VEC2"
		},
		{
			"bufferView":12,
			"componentType":5123,
			"count":6,
			"type":"SCALAR"
		}
	],
	"bufferViews":[
		{
			"buffer":0,
			"byteLength":1728,
			"byteOffset":0,
			"target":34962
		},
		{
			"buffer":0,
			"byteLength":1728,
			"byteOffset":1728,
			"target":34962
		},
		{
			"buffer":0,
			"byteLength":1152,
			"byteOffset":3456,
			"target":34962
		},
		{
			"buffer":0,
			"byteLength":468,
			"byteOffset":4608,
			"target":34963
		},
		{
			"buffer":0,
			"byteLength":11721,
			"byteOffset":5076
		},
		{
			"buffer":0,
			"byteLength":5148,
			"byteOffset":16800,
			"target":34962
		},
		{
			"buffer":0,
			"byteLength":5148,
			"byteOffset":21948,
			"target":34962
		},
		{
			"buffer":0,
			"byteLength":3432,
			"byteOffset":27096,
			"target":34962
		},
		{
			"buffer":0,
			"byteLength":2502,
			"byteOffset":30528,
			"target":34963
		},
		{
			"buffer":0,
			"byteLength":48,
			"byteOffset":33032,
			"target":34962
		},
		{
			"buffer":0,
			"byteLength":48,
			"byteOffset":33080,
			"target":34962
		},
		{
			"buffer":0,
			"byteLength":32,
			"byteOffset":33128,
			"target":34962
		},
		{
			"buffer":0,
			"byteLength":12,
			"byteOffset":33160,
			"target":34963
		}
	],
	"samplers":[
		{
			"magFilter":9728,
			"minFilter":9984
		}
	],
	"buffers":[
		{
			"byteLength":33172,
			"uri":"data:application/octet-stream;base64,"
		}
	]
}
