{
	"asset":{
		"generator":"Khronos glTF Blender I/O v3.6.27",
		"version":"2.0"
	},
	"extensionsUsed":[
		"KHR_materials_specular",
		"KHR_materials_ior"
	],
	"scene":0,
	"scenes":[
		{
			"name":"Scene",
			"nodes":[
				0,
				1,
				2
			]
		}
	],
	"nodes":[
		{
			"mesh":0,
			"name":"Microphone",
			"rotation":[
				0.339042991399765,
				0,
				0,
				0.9407708644866943
			],
			"translation":[
				-1.2608224153518677,
				0.5444944500923157,
				3.446221113204956
			]
		},
		{
			"mesh":1,
			"name":"Plane",
			"rotation":[
				0.339042991399765,
				0,
				0,
				0.9407708644866943
			],
			"scale":[
				3.483701229095459,
				1,
				1
			],
			"translation":[
				-0.05985701084136963,
				0.6736474633216858,
				3.240020990371704
			]
		},
		{
			"mesh":2,
			"name":"Mouse",
			"rotation":[
				0.7071068286895752,
				0,
				0,
				0.7071068286895752
			],
			"scale":[
				0.18104279041290283,
				0.18104279041290283,
				0.18104279041290283
			],
			"translation":[
				-5.834320068359375,
				0,
				-0.6000944375991821
			]
		}
	],
	"materials":[
		{
			"doubleSided":true,
			"name":"Material.007",
			"pbrMetallicRoughness":{
				"baseColorFactor":[
					0,
					0,
					0,
					1
				],
				"metallicFactor":0,
				"roughnessFactor":0.5
			}
		},
		{
			"doubleSided":true,
			"name":"Material.006",
			"pbrMetallicRoughness":{
				"baseColorFactor":[
					0.800000011920929,
					0.800000011920929,
					0.800000011920929,
					1
				],
				"metallicFactor":0,
				"roughnessFactor":0.5
			}
		},
		{
			"doubleSided":true,
			"extensions":{
				"KHR_materials_specular":{
					"specularColorFactor":[
						0,
						0,
						0
					]
				},
				"KHR_materials_ior":{
					"ior":1.4500000476837158
				}
			},
			"name":"aiStandardSurface9SG",
			"pbrMetallicRoughness":{
				"baseColorFactor":[
					0.05222456157207489,
					0.05222456157207489,
					0.05222456157207489,
					1
				],
				"metallicFactor":0
			}
		},
		{
			"doubleSided":true,
			"extensions":{
				"KHR_materials_specular":{
					"specularColorFactor":[
						0,
						0,
						0
					]
				},
				"KHR_materials_ior":{
					"ior":1.4500000476837158
				}
			},
			"name":"aiStandardSurface6SG",
			"pbrMetallicRoughness":{
				"baseColorFactor":[
					0.035223085433244705,
					0.035223085433244705,
					0.035223085433244705,
					1
				],
				"metallicFactor":0
			}
		},
		{
			"doubleSided":true,
			"extensions":{
				"KHR_materials_specular":{
					"specularColorFactor":[
						0,
						0,
						0
					]
				},
				"KHR_materials_ior":{
					"ior":1.4500000476837158
				}
			},
			"name":"aiStandardSurface7SG",
			"pbrMetallicRoughness":{
				"baseColorFactor":[
					0.12825046479701996,
					0.12825046479701996,
					0.12825046479701996,
					1
				],
				"metallicFactor":0
			}
		},
		{
			"doubleSided":true,
			"extensions":{
				"KHR_materials_specular":{
					"specularColorFactor":[
						0,
						0,
						0
					]
				},
				"KHR_materials_ior":{
					"ior":1.4500000476837158
				}
			},
			"name":"aiStandardSurface3SG",
			"pbrMetallicRoughness":{
				"metallicFactor":0
			}
		},
		{
			"doubleSided":true,
			"extensions":{
				"KHR_materials_specular":{
					"specularColorFactor":[
						0,
						0,
						0
					]
				},
				"KHR_materials_ior":{
					"ior":1.4500000476837158
				}
			},
			"name":"aiStandardSurface2SG",
			"pbrMetallicRoughness":{
				"baseColorFactor":[
					0.05780947580933571,
					0.05780947580933571,
					0.05780947580933571,
					1
				],
				"metallicFactor":0
			}
		}
	],
	"meshes":[
		{
			"name":"Microphone",
			"primitives":[
				{
					"attributes":{
						"POSITION":0,
						"NORMAL":1,
						"TEXCOORD_0":2
					},
					"indices":3,
					"material":0
				}
			]
		},
		{
			"name":"Plane",
			"primitives":[
				{
					"attributes":{
						"POSITION":4,
						"NORMAL":5,
						"TEXCOORD_0":6
					},
					"indices":7,
					"material":1
				}
			]
		},
		{
			"name":"Mouse",
			"primitives":[
				{
					"attributes":{
						"POSITION":8,
						"NORMAL":9,
						"TEXCOORD_0":10
					},
					"indices":11,
					"material":2
				},
				{
					"attributes":{
						"POSITION":12,
						"NORMAL":13,
						"TEXCOORD_0":14
					},
					"indices":15,
					"material":3
				},
				{
					"attributes":{
						"POSITION":16,
						"NORMAL":17,
						"TEXCOORD_0":18
					},
					"indices":19,
					"material":4
				},
				{
					"attributes":{
						"POSITION":20,
						"NORMAL":21,
						"TEXCOORD_0":22
					},
					"indices":23,
					"material":5
				},
				{
					"attributes":{
						"POSITION":24,
						"NORMAL":25,
						"TEXCOORD_0":26
					},
					"indices":27,
					"material":6
				}
			]
		}
	],
	"accessors":[
		{
			"bufferView":0,
			"componentType":5126,
			"count":400,
			"max":[
				2.6640002727508545,
				0,
				0.009000000543892384
			],
			"min":[
				0.07300000637769699,
				0,
				-0.6820000410079956
			],
			"type":"VEC3"
		},
		{
			"bufferView":1,
			"componentType":5126,
			"count":400,
			"type":"VEC3"
		},
		{
			"bufferView":2,
			"componentType":5126,
			"count":400,
			"type":"VEC2"
		},
		{
			"bufferView":3,
			"componentType":5123,
			"count":1182,
			"type":"SCALAR"
		},
		{
			"bufferView":4,
			"componentType":5126,
			"count":4,
			"max":[
				1,
				0,
				1
			],
			"min":[
				-1,
				0,
				-1
			],
			"type":"VEC3"
		},
		{
			"bufferView":5,
			"componentType":5126,
			"count":4,
			"type":"VEC3"
		},
		{
			"bufferView":6,
			"componentType":5126,
			"count":4,
			"type":"VEC2"
		},
		{
			"bufferView":7,
			"componentType":5123,
			"count":6,
			"type":"SCALAR"
		},
		{
			"bufferView":8,
			"componentType":5126,
			"count":523,
			"max":[
				32.08805465698242,
				-8.91318416595459,
				0.2527320086956024
			],
			"min":[
				13.914491653442383,
				-20.010587692260742,
				-1.2867540121078491
			],
			"type":"VEC3"
		},
		{
			"bufferView":9,
			"componentType":5126,
			"count":523,
			"type":"VEC3"
		},
		{
			"bufferView":10,
			"componentType":5126,
			"count":523,
			"type":"VEC2"
		},
		{
			"bufferView":11,
			"componentType":5123,
			"count":2820,
			"type":"SCALAR"
		},
		{
			"bufferView":12,
			"componentType":5126,
			"count":2675,
			"max":[
				36.648284912109375,
				10.876299858093262,
				-0.8802760243415833
			],
			"min":[
				26.826190948486328,
				-9.580428123474121,
				-8.788125991821289
			],
			"type":"VEC3"
		},
		{
			"bufferView":13,
			"componentType":5126,
			"count":2675,
			"type":"VEC3"
		},
		{
			"bufferView":14,
			"componentType":5126,
			"count":2675,
			"type":"VEC2"
		},
		{
			"bufferView":15,
			"componentType":5123,
			"count":6552,
			"type":"SCALAR"
		},
		{
			"bufferView":16,
			"componentType":5126,
			"count":1450,
			"max":[
				36.609310150146484,
				10.790511131286621,
				0.18199700117111206
			],
			"min":[
				26.865135192871094,
				-9.471250534057617,
				-5.709071159362793
			],
			"type":"VEC3"
		},
		{
			"bufferView":17,
			"componentType":5126,
			"count":1450,
			"type":"VEC3"
		},
		{
			"bufferView":18,
			"componentType":5126,
			"count":1450,
			"type":"VEC2"
		},
		{
			"bufferView":19,
			"componentType":5123,
			"count":3660,
			"type":"SCALAR"
		},
		{
			"bufferView":20,
			"componentType":5126,
			"count":1133,
			"max":[
				32.67603302001953,
				-3.689444065093994,
				-1.5353920459747314
			],
			"min":[
				30.940027236938477,
				-8.088494300842285,
				-5.323617935180664
			],
			"type":"VEC3"
		},
		{
			"bufferView":21,
			"componentType":5126,
			"count":1133,
			"type":"VEC3"
		},
		{
			"bufferView":22,
			"componentType":5126,
			"count":1133,
			"type":"VEC2"
		},
		{
			"bufferView":23,
			"componentType":5123,
			"count":4440,
			"type":"SCALAR"
		},
		{
			"bufferView":24,
			"componentType":5126,
			"count":2392,
			"max":[
				36.36369705200195,
				10.315764427185059,
				0.5164830088615417
			],
			"min":[
				27.110736846923828,
				-8.095928192138672,
				-0.9815459847450256
			],
			"type":"VEC3"
		},
		{
			"bufferView":25,
			"componentType":5126,
			"count":2392,
			"type":"VEC3"
		},
		{
			"bufferView":26,
			"componentType":5126,
			"count":2392,
			"type":"VEC2"
		},
		{
			"bufferView":27,
			"componentType":5123,
			"count":3648,
			"type":"SCALAR"
		}
	],
	"bufferViews":[
		{
			"buffer":0,
			"byteLength":4800,
			"byteOffset":0,
			"target":34962
		},
		{
			"buffer":0,
			"byteLength":4800,
			"byteOffset":4800,
			"target":34962
		},
		{
			"buffer":0,
			"byteLength":3200,
			"byteOffset":9600,
			"target":34962
		},
		{
			"buffer":0,
			"byteLength":2364,
			"byteOffset":12800,
			"target":34963
		},
		{
			"buffer":0,
			"byteLength":48,
			"byteOffset":15164,
			"target":34962
		},
		{
			"buffer":0,
			"byteLength":48,
			"byteOffset":15212,
			"target":34962
		},
		{
			"buffer":0,
			"byteLength":32,
			"byteOffset":15260,
			"target":34962
		},
		{
			"buffer":0,
			"byteLength":12,
			"byteOffset":15292,
			"target":34963
		},
		{
			"buffer":0,
			"byteLength":6276,
			"byteOffset":15304,
			"target":34962
		},
		{
			"buffer":0,
			"byteLength":6276,
			"byteOffset":21580,
			"target":34962
		},
		{
			"buffer":0,
			"byteLength":4184,
			"byteOffset":27856,
			"target":34962
		},
		{
			"buffer":0,
			"byteLength":5640,
			"byteOffset":32040,
			"target":34963
		},
		{
			"buffer":0,
			"byteLength":32100,
			"byteOffset":37680,
			"target":34962
		},
		{
			"buffer":0,
			"byteLength":32100,
			"byteOffset":69780,
			"target":34962
		},
		{
			"buffer":0,
			"byteLength":21400,
			"byteOffset":101880,
			"target":34962
		},
		{
			"buffer":0,
			"byteLength":13104,
			"byteOffset":123280,
			"target":34963
		},
		{
			"buffer":0,
			"byteLength":17400,
			"byteOffset":136384,
			"target":34962
		},
		{
			"buffer":0,
			"byteLength":17400,
			"byteOffset":153784,
			"target":34962
		},
		{
			"buffer":0,
			"byteLength":11600,
			"byteOffset":171184,
			"target":34962
		},
		{
			"buffer":0,
			"byteLength":7320,
			"byteOffset":182784,
			"target":34963
		},
		{
			"buffer":0,
			"byteLength":13596,
			"byteOffset":190104,
			"target":34962
		},
		{
			"buffer":0,
			"byteLength":13596,
			"byteOffset":203700,
			"target":34962
		},
		{
			"buffer":0,
			"byteLength":9064,
			"byteOffset":217296,
			"target":34962
		},
		{
			"buffer":0,
			"byteLength":8880,
			"byteOffset":226360,
			"target":34963
		},
		{
			"buffer":0,
			"byteLength":28704,
			"byteOffset":235240,
			"target":34962
		},
		{
			"buffer":0,
			"byteLength":28704,
			"byteOffset":263944,
			"target":34962
		},
		{
			"buffer":0,
			"byteLength":19136,
			"byteOffset":292648,
			"target":34962
		},
		{
			"buffer":0,
			"byteLength":7296,
			"byteOffset":311784,
			"target":34963
		}
	],
	"buffers":[
		{
			"byteLength":319080,
			"uri":"data:application/octet-stream;base64,"
		}
	]
}
