{
	"asset":{
		"generator":"Khronos glTF Blender I/O v3.6.27",
		"version":"2.0"
	},
	"scene":0,
	"scenes":[
		{
			"name":"Scene",
			"nodes":[
				13,
				14,
				15
			]
		}
	],
	"nodes":[
		{
			"mesh":0,
			"name":"Cube_0.001"
		},
		{
			"mesh":1,
			"name":"Cube_1.001"
		},
		{
			"mesh":2,
			"name":"Cube_2.001"
		},
		{
			"children":[
				0,
				1,
				2
			],
			"name":"Cube.005",
			"scale":[
				0.15000000596046448,
				0.07499998807907104,
				0.0599999837577343
			]
		},
		{
			"mesh":3,
			"name":"Cube.001_0.001"
		},
		{
			"children":[
				4
			],
			"name":"Cube.006",
			"rotation":[
				0.2792893946170807,
				0,
				0,
				0.9602069854736328
			],
			"scale":[
				5,
				2.500002861022949,
				2.500002861022949
			],
			"translation":[
				0.13623999059200287,
				-0.06037000194191933,
				0.055259957909584045
			]
		},
		{
			"mesh":4,
			"name":"Cube.002_0.001"
		},
		{
			"children":[
				6
			],
			"name":"Cube.007",
			"rotation":[
				0.2792893946170807,
				0,
				0,
				0.9602069854736328
			],
			"scale":[
				2.5,
				2.500002861022949,
				2.500002861022949
			],
			"translation":[
				0.1251000016927719,
				-0.06037000194191933,
				0.055259957909584045
			]
		},
		{
			"mesh":5,
			"name":"Cube.003_0.001"
		},
		{
			"children":[
				8
			],
			"name":"Cube.008",
			"rotation":[
				0.2792893946170807,
				0,
				0,
				0.9602069854736328
			],
			"scale":[
				2.5,
				2.500002861022949,
				2.500002861022949
			],
			"translation":[
				0.1163799986243248,
				-0.06037000194191933,
				0.055259957909584045
			]
		},
		{
			"mesh":6,
			"name":"Cube.004_0.001",
			"translation":[
				-0.0006721578538417816,
				0,
				0
			]
		},
		{
			"children":[
				10
			],
			"name":"Cube.009",
			"rotation":[
				0.2792893946170807,
				0,
				0,
				0.9602069854736328
			],
			"scale":[
				2.5,
				2.500002861022949,
				2.500002861022949
			],
			"translation":[
				0.10815000534057617,
				-0.06037000194191933,
				0.055259957909584045
			]
		},
		{
			"children":[
				3,
				5,
				7,
				9,
				11
			],
			"name":"Root.001"
		},
		{
			"children":[
				12
			],
			"name":"Sketchfab_model.001",
			"rotation":[
				-0.7071070075035095,
				0,
				0,
				0.7071065902709961
			],
			"scale":[
				45.84086227416992,
				45.84086608886719,
				45.84086608886719
			],
			"translation":[
				0.3112300932407379,
				2.751185178756714,
				-7.427213668823242
			]
		},
		{
			"mesh":7,
			"name":"Microphone",
			"rotation":[
				0.339042991399765,
				0,
				0,
				0.9407708644866943
			],
			"translation":[
				-1.3178702592849731,
				0.5444944500923157,
				3.446221113204956
			]
		},
		{
			"mesh":8,
			"name":"Plane",
			"rotation":[
				0.339042991399765,
				0,
				0,
				0.9407708644866943
			],
			"scale":[
				3.483701229095459,
				1,
				1
			],
			"translation":[
				-0.05985701084136963,
				0.6736474633216858,
				3.240020990371704
			]
		}
	],
	"materials":[
		{
			"doubleSided":true,
			"name":"Grey.001",
			"pbrMetallicRoughness":{
				"baseColorFactor":[
					0.19017283618450165,
					0.19017283618450165,
					0.19017283618450165,
					1
				]
			}
		},
		{
			"doubleSided":true,
			"name":"Buttons_Black.001",
			"pbrMetallicRoughness":{
				"baseColorFactor":[
					0.08000843971967697,
					0.08000843971967697,
					0.08000843971967697,
					1
				]
			}
		},
		{
			"doubleSided":true,
			"name":"White.001",
			"pbrMetallicRoughness":{
				"baseColorFactor":[
					0.4200168550014496,
					0.4200168550014496,
					0.4200168550014496,
					1
				]
			}
		},
		{
			"doubleSided":true,
			"name":"Button_ONOFF.001",
			"pbrMetallicRoughness":{
				"baseColorFactor":[
					1,
					0.012952600605785847,
					0.027546821162104607,
					1
				]
			}
		},
		{
			"doubleSided":true,
			"name":"Material.007",
			"pbrMetallicRoughness":{
				"baseColorFactor":[
					0,
					0,
					0,
					1
				],
				"metallicFactor":0,
				"roughnessFactor":0.5
			}
		},
		{
			"doubleSided":true,
			"name":"Material.006",
			"pbrMetallicRoughness":{
				"baseColorFactor":[
					0.800000011920929,
					0.800000011920929,
					0.800000011920929,
					1
				],
				"metallicFactor":0,
				"roughnessFactor":0.5
			}
		}
	],
	"meshes":[
		{
			"name":"Cube_0.001",
			"primitives":[
				{
					"attributes":{
						"POSITION":0,
						"NORMAL":1
					},
					"indices":2,
					"material":0
				}
			]
		},
		{
			"name":"Cube_1.001",
			"primitives":[
				{
					"attributes":{
						"POSITION":3,
						"NORMAL":4
					},
					"indices":5,
					"material":1
				}
			]
		},
		{
			"name":"Cube_2.001",
			"primitives":[
				{
					"attributes":{
						"POSITION":6,
						"NORMAL":7
					},
					"indices":8,
					"material":2
				}
			]
		},
		{
			"name":"Cube.001_0.001",
			"primitives":[
				{
					"attributes":{
						"POSITION":9,
						"NORMAL":10
					},
					"indices":11,
					"material":3
				}
			]
		},
		{
			"name":"Cube.002_0.001",
			"primitives":[
				{
					"attributes":{
						"POSITION":12,
						"NORMAL":13
					},
					"indices":11,
					"material":1
				}
			]
		},
		{
			"name":"Cube.003_0.001",
			"primitives":[
				{
					"attributes":{
						"POSITION":14,
						"NORMAL":15
					},
					"indices":11,
					"material":1
				}
			]
		},
		{
			"name":"Cube.004_0.001",
			"primitives":[
				{
					"attributes":{
						"POSITION":16,
						"NORMAL":17
					},
					"indices":11,
					"material":1
				}
			]
		},
		{
			"name":"Microphone",
			"primitives":[
				{
					"attributes":{
						"POSITION":18,
						"NORMAL":19,
						"TEXCOORD_0":20
					},
					"indices":21,
					"material":4
				}
			]
		},
		{
			"name":"Plane",
			"primitives":[
				{
					"attributes":{
						"POSITION":22,
						"NORMAL":23,
						"TEXCOORD_0":24
					},
					"indices":25,
					"material":5
				}
			]
		}
	],
	"accessors":[
		{
			"bufferView":0,
			"componentType":5126,
			"count":38,
			"max":[
				0.6000000238418579,
				1,
				1
			],
			"min":[
				-0.6000000238418579,
				-1,
				-1
			],
			"type":"VEC3"
		},
		{
			"bufferView":1,
			"componentType":5126,
			"count":38,
			"type":"VEC3"
		},
		{
			"bufferView":2,
			"componentType":5123,
			"count":66,
			"type":"SCALAR"
		},
		{
			"bufferView":3,
			"componentType":5126,
			"count":48,
			"max":[
				1,
				1,
				1
			],
			"min":[
				-0.6000000238418579,
				-1,
				-0.800000011920929
			],
			"type":"VEC3"
		},
		{
			"bufferView":4,
			"componentType":5126,
			"count":48,
			"type":"VEC3"
		},
		{
			"bufferView":5,
			"componentType":5123,
			"count":72,
			"type":"SCALAR"
		},
		{
			"bufferView":6,
			"componentType":5126,
			"count":156,
			"max":[
				1,
				1.8322199583053589,
				2.023710012435913
			],
			"min":[
				-1,
				-2.4074199199676514,
				-1
			],
			"type":"VEC3"
		},
		{
			"bufferView":7,
			"componentType":5126,
			"count":156,
			"type":"VEC3"
		},
		{
			"bufferView":8,
			"componentType":5123,
			"count":342,
			"type":"SCALAR"
		},
		{
			"bufferView":9,
			"componentType":5126,
			"count":20,
			"max":[
				0.0010000000474974513,
				0.0010000000474974513,
				0.0010000000474974513
			],
			"min":[
				-0.0010000000474974513,
				-0.0010000000474974513,
				-0.0010000000474974513
			],
			"type":"VEC3"
		},
		{
			"bufferView":10,
			"componentType":5126,
			"count":20,
			"type":"VEC3"
		},
		{
			"bufferView":11,
			"componentType":5123,
			"count":30,
			"type":"SCALAR"
		},
		{
			"bufferView":12,
			"componentType":5126,
			"count":20,
			"max":[
				0.0010000000474974513,
				0.0010000000474974513,
				0.0010000000474974513
			],
			"min":[
				-0.0010000000474974513,
				-0.0010000000474974513,
				-0.0010000000474974513
			],
			"type":"VEC3"
		},
		{
			"bufferView":13,
			"componentType":5126,
			"count":20,
			"type":"VEC3"
		},
		{
			"bufferView":14,
			"componentType":5126,
			"count":20,
			"max":[
				0.0010000000474974513,
				0.0010000000474974513,
				0.0010000000474974513
			],
			"min":[
				-0.0010000000474974513,
				-0.0010000000474974513,
				-0.0010000000474974513
			],
			"type":"VEC3"
		},
		{
			"bufferView":15,
			"componentType":5126,
			"count":20,
			"type":"VEC3"
		},
		{
			"bufferView":16,
			"componentType":5126,
			"count":20,
			"max":[
				0.0010000000474974513,
				0.0010000000474974513,
				0.0010000000474974513
			],
			"min":[
				-0.0010000000474974513,
				-0.0010000000474974513,
				-0.0010000000474974513
			],
			"type":"VEC3"
		},
		{
			"bufferView":17,
			"componentType":5126,
			"count":20,
			"type":"VEC3"
		},
		{
			"bufferView":18,
			"componentType":5126,
			"count":432,
			"max":[
				2.8340003490448,
				0,
				0.009000000543892384
			],
			"min":[
				0.07000000029802322,
				0,
				-0.6820000410079956
			],
			"type":"VEC3"
		},
		{
			"bufferView":19,
			"componentType":5126,
			"count":432,
			"type":"VEC3"
		},
		{
			"bufferView":20,
			"componentType":5126,
			"count":432,
			"type":"VEC2"
		},
		{
			"bufferView":21,
			"componentType":5123,
			"count":1260,
			"type":"SCALAR"
		},
		{
			"bufferView":22,
			"componentType":5126,
			"count":4,
			"max":[
				1,
				0,
				1
			],
			"min":[
				-1,
				0,
				-1
			],
			"type":"VEC3"
		},
		{
			"bufferView":23,
			"componentType":5126,
			"count":4,
			"type":"VEC3"
		},
		{
			"bufferView":24,
			"componentType":5126,
			"count":4,
			"type":"VEC2"
		},
		{
			"bufferView":25,
			"componentType":5123,
			"count":6,
			"type":"SCALAR"
		}
	],
	"bufferViews":[
		{
			"buffer":0,
			"byteLength":456,
			"byteOffset":0,
			"target":34962
		},
		{
			"buffer":0,
			"byteLength":456,
			"byteOffset":456,
			"target":34962
		},
		{
			"buffer":0,
			"byteLength":132,
			"byteOffset":912,
			"target":34963
		},
		{
			"buffer":0,
			"byteLength":576,
			"byteOffset":1044,
			"target":34962
		},
		{
			"buffer":0,
			"byteLength":576,
			"byteOffset":1620,
			"target":34962
		},
		{
			"buffer":0,
			"byteLength":144,
			"byteOffset":2196,
			"target":34963
		},
		{
			"buffer":0,
			"byteLength":1872,
			"byteOffset":2340,
			"target":34962
		},
		{
			"buffer":0,
			"byteLength":1872,
			"byteOffset":4212,
			"target":34962
		},
		{
			"buffer":0,
			"byteLength":684,
			"byteOffset":6084,
			"target":34963
		},
		{
			"buffer":0,
			"byteLength":240,
			"byteOffset":6768,
			"target":34962
		},
		{
			"buffer":0,
			"byteLength":240,
			"byteOffset":7008,
			"target":34962
		},
		{
			"buffer":0,
			"byteLength":60,
			"byteOffset":7248,
			"target":34963
		},
		{
			"buffer":0,
			"byteLength":240,
			"byteOffset":7308,
			"target":34962
		},
		{
			"buffer":0,
			"byteLength":240,
			"byteOffset":7548,
			"target":34962
		},
		{
			"buffer":0,
			"byteLength":240,
			"byteOffset":7788,
			"target":34962
		},
		{
			"buffer":0,
			"byteLength":240,
			"byteOffset":8028,
			"target":34962
		},
		{
			"buffer":0,
			"byteLength":240,
			"byteOffset":8268,
			"target":34962
		},
		{
			"buffer":0,
			"byteLength":240,
			"byteOffset":8508,
			"target":34962
		},
		{
			"buffer":0,
			"byteLength":5184,
			"byteOffset":8748,
			"target":34962
		},
		{
			"buffer":0,
			"byteLength":5184,
			"byteOffset":13932,
			"target":34962
		},
		{
			"buffer":0,
			"byteLength":3456,
			"byteOffset":19116,
			"target":34962
		},
		{
			"buffer":0,
			"byteLength":2520,
			"byteOffset":22572,
			"target":34963
		},
		{
			"buffer":0,
			"byteLength":48,
			"byteOffset":25092,
			"target":34962
		},
		{
			"buffer":0,
			"byteLength":48,
			"byteOffset":25140,
			"target":34962
		},
		{
			"buffer":0,
			"byteLength":32,
			"byteOffset":25188,
			"target":34962
		},
		{
			"buffer":0,
			"byteLength":12,
			"byteOffset":25220,
			"target":34963
		}
	],
	"buffers":[
		{
			"byteLength":25232,
			"uri":"data:application/octet-stream;base64,"
		}
	]
}
