{
	"asset":{
		"generator":"Khronos glTF Blender I/O v3.6.27",
		"version":"2.0"
	},
	"scene":0,
	"scenes":[
		{
			"name":"Scene",
			"nodes":[
				0,
				1,
				6
			]
		}
	],
	"nodes":[
		{
			"mesh":0,
			"name":"Microphone",
			"rotation":[
				0.339042991399765,
				0,
				0,
				0.9407708644866943
			],
			"translation":[
				-1.5409657955169678,
				0.5444944500923157,
				3.446221113204956
			]
		},
		{
			"mesh":1,
			"name":"Plane",
			"rotation":[
				0.339042991399765,
				0,
				0,
				0.9407708644866943
			],
			"scale":[
				3.483701229095459,
				1,
				1
			],
			"translation":[
				-0.05985701084136963,
				0.6736474633216858,
				3.240020990371704
			]
		},
		{
			"mesh":2,
			"name":"speaker1_speaker_0"
		},
		{
			"children":[
				2
			],
			"name":"speaker1",
			"translation":[
				-0.02133338525891304,
				0,
				-0.04940289258956909
			]
		},
		{
			"children":[
				3
			],
			"name":"RootNode.001"
		},
		{
			"children":[
				4
			],
			"name":"0d1a0078de254e1da2d4f602048a53d2.fbx",
			"rotation":[
				0.70710688829422,
				0,
				0,
				0.7071066498756409
			],
			"scale":[
				0.009999998845160007,
				0.010000000707805157,
				0.010000000707805157
			]
		},
		{
			"children":[
				5
			],
			"name":"Sketchfab_model",
			"rotation":[
				-0.70710688829422,
				0,
				0,
				0.7071066498756409
			],
			"scale":[
				1113.110595703125,
				1113.1107177734375,
				1113.1107177734375
			],
			"translation":[
				0,
				0,
				-1.5563093423843384
			]
		}
	],
	"materials":[
		{
			"doubleSided":true,
			"name":"Material.013",
			"pbrMetallicRoughness":{
				"baseColorFactor":[
					0,
					0,
					0,
					1
				],
				"metallicFactor":0,
				"roughnessFactor":0.5
			}
		},
		{
			"doubleSided":true,
			"name":"Material.014",
			"pbrMetallicRoughness":{
				"baseColorFactor":[
					0.800000011920929,
					0.800000011920929,
					0.800000011920929,
					1
				],
				"metallicFactor":0,
				"roughnessFactor":0.5
			}
		},
		{
			"doubleSided":true,
			"name":"speaker",
			"normalTexture":{
				"index":0
			},
			"pbrMetallicRoughness":{
				"baseColorTexture":{
					"index":1
				},
				"metallicFactor":0,
				"metallicRoughnessTexture":{
					"index":2
				}
			}
		}
	],
	"meshes":[
		{
			"name":"Microphone.003",
			"primitives":[
				{
					"attributes":{
						"POSITION":0,
						"NORMAL":1,
						"TEXCOORD_0":2
					},
					"indices":3,
					"material":0
				}
			]
		},
		{
			"name":"Plane.010",
			"primitives":[
				{
					"attributes":{
						"POSITION":4,
						"NORMAL":5,
						"TEXCOORD_0":6
					},
					"indices":7,
					"material":1
				}
			]
		},
		{
			"name":"speaker1_speaker_0",
			"primitives":[
				{
					"attributes":{
						"POSITION":8,
						"NORMAL":9,
						"TEXCOORD_0":10
					},
					"indices":11,
					"material":2
				}
			]
		}
	],
	"textures":[
		{
			"sampler":0,
			"source":0
		},
		{
			"sampler":0,
			"source":1
		},
		{
			"sampler":0,
			"source":2
		}
	],
	"images":[
		{
			"bufferView":12,
			"mimeType":"image/png",
			"name":"speaker_normal"
		},
		{
			"bufferView":13,
			"mimeType":"image/png",
			"name":"speaker_baseColor"
		},
		{
			"bufferView":14,
			"mimeType":"image/png",
			"name":"speaker_metallicRoughness"
		}
	],
	"accessors":[
		{
			"bufferView":0,
			"componentType":5126,
			"count":637,
			"max":[
				3.2190003395080566,
				0,
				0.23000000417232513
			],
			"min":[
				0.04000000283122063,
				0,
				-0.6910000443458557
			],
			"type":"VEC3"
		},
		{
			"bufferView":1,
			"componentType":5126,
			"count":637,
			"type":"VEC3"
		},
		{
			"bufferView":2,
			"componentType":5126,
			"count":637,
			"type":"VEC2"
		},
		{
			"bufferView":3,
			"componentType":5123,
			"count":1887,
			"type":"SCALAR"
		},
		{
			"bufferView":4,
			"componentType":5126,
			"count":4,
			"max":[
				1,
				0,
				1
			],
			"min":[
				-1,
				0,
				-1
			],
			"type":"VEC3"
		},
		{
			"bufferView":5,
			"componentType":5126,
			"count":4,
			"type":"VEC3"
		},
		{
			"bufferView":6,
			"componentType":5126,
			"count":4,
			"type":"VEC2"
		},
		{
			"bufferView":7,
			"componentType":5123,
			"count":6,
			"type":"SCALAR"
		},
		{
			"bufferView":8,
			"componentType":5126,
			"count":196,
			"max":[
				0.16377884149551392,
				0.5191124677658081,
				0.2717483639717102
			],
			"min":[
				-0.12111207097768784,
				0.0071111321449279785,
				-0.17294254899024963
			],
			"type":"VEC3"
		},
		{
			"bufferView":9,
			"componentType":5126,
			"count":196,
			"type":"VEC3"
		},
		{
			"bufferView":10,
			"componentType":5126,
			"count":196,
			"type":"VEC2"
		},
		{
			"bufferView":11,
			"componentType":5123,
			"count":516,
			"type":"SCALAR"
		}
	],
	"bufferViews":[
		{
			"buffer":0,
			"byteLength":7644,
			"byteOffset":0,
			"target":34962
		},
		{
			"buffer":0,
			"byteLength":7644,
			"byteOffset":7644,
			"target":34962
		},
		{
			"buffer":0,
			"byteLength":5096,
			"byteOffset":15288,
			"target":34962
		},
		{
			"buffer":0,
			"byteLength":3774,
			"byteOffset":20384,
			"target":34963
		},
		{
			"buffer":0,
			"byteLength":48,
			"byteOffset":24160,
			"target":34962
		},
		{
			"buffer":0,
			"byteLength":48,
			"byteOffset":24208,
			"target":34962
		},
		{
			"buffer":0,
			"byteLength":32,
			"byteOffset":24256,
			"target":34962
		},
		{
			"buffer":0,
			"byteLength":12,
			"byteOffset":24288,
			"target":34963
		},
		{
			"buffer":0,
			"byteLength":2352,
			"byteOffset":24300,
			"target":34962
		},
		{
			"buffer":0,
			"byteLength":2352,
			"byteOffset":26652,
			"target":34962
		},
		{
			"buffer":0,
			"byteLength":1568,
			"byteOffset":29004,
			"target":34962
		},
		{
			"buffer":0,
			"byteLength":1032,
			"byteOffset":30572,
			"target":34963
		},
		{
			"buffer":0,
			"byteLength":33234,
			"byteOffset":31604
		},
		{
			"buffer":0,
			"byteLength":24916,
			"byteOffset":64840
		},
		{
			"buffer":0,
			"byteLength":5613,
			"byteOffset":89756
		}
	],
	"samplers":[
		{
			"magFilter":9729,
			"minFilter":9987
		}
	],
	"buffers":[
		{
			"byteLength":95372,
			"uri":"data:application/octet-stream;base64,"
		}
	]
}
