{
	"asset":{
		"generator":"Khronos glTF Blender I/O v3.6.27",
		"version":"2.0"
	},
	"extensionsUsed":[
		"KHR_materials_specular",
		"KHR_materials_ior"
	],
	"scene":0,
	"scenes":[
		{
			"name":"Scene",
			"nodes":[
				0,
				1,
				2
			]
		}
	],
	"nodes":[
		{
			"mesh":0,
			"name":"Microphone",
			"rotation":[
				0.339042991399765,
				0,
				0,
				0.9407708644866943
			],
			"translation":[
				-2.1434717178344727,
				0.5444944500923157,
				3.446221113204956
			]
		},
		{
			"mesh":1,
			"name":"Plane",
			"rotation":[
				0.339042991399765,
				0,
				0,
				0.9407708644866943
			],
			"scale":[
				3.483701229095459,
				1,
				1
			],
			"translation":[
				-0.05985701084136963,
				0.6736474633216858,
				3.240020990371704
			]
		},
		{
			"mesh":2,
			"name":"Camera_to_SF",
			"rotation":[
				2.6836307370103896e-05,
				-0.7071068286895752,
				0.7071067690849304,
				2.68363091890933e-05
			],
			"scale":[
				0.10142785310745239,
				0.10142785310745239,
				0.10142785310745239
			],
			"translation":[
				0,
				2.038553476333618,
				0.22707581520080566
			]
		}
	],
	"materials":[
		{
			"doubleSided":true,
			"name":"Material.007",
			"pbrMetallicRoughness":{
				"baseColorFactor":[
					0,
					0,
					0,
					1
				],
				"metallicFactor":0,
				"roughnessFactor":0.5
			}
		},
		{
			"doubleSided":true,
			"name":"Material.006",
			"pbrMetallicRoughness":{
				"baseColorFactor":[
					0.800000011920929,
					0.800000011920929,
					0.800000011920929,
					1
				],
				"metallicFactor":0,
				"roughnessFactor":0.5
			}
		},
		{
			"doubleSided":true,
			"extensions":{
				"KHR_materials_specular":{
					"specularColorFactor":[
						0,
						0,
						0
					]
				},
				"KHR_materials_ior":{
					"ior":1.4500000476837158
				}
			},
			"name":"aiStandardSurface1SG",
			"pbrMetallicRoughness":{
				"baseColorFactor":[
					0.037409067153930664,
					0.037409067153930664,
					0.037409067153930664,
					1
				],
				"metallicFactor":0
			}
		},
		{
			"doubleSided":true,
			"extensions":{
				"KHR_materials_specular":{
					"specularColorFactor":[
						0,
						0,
						0
					]
				},
				"KHR_materials_ior":{
					"ior":1.4500000476837158
				}
			},
			"name":"aiStandardSurface2SG.001",
			"pbrMetallicRoughness":{
				"baseColorFactor":[
					0.13286171853542328,
					0.13286171853542328,
					0.13286171853542328,
					1
				],
				"metallicFactor":0
			}
		},
		{
			"doubleSided":true,
			"extensions":{
				"KHR_materials_specular":{
					"specularColorFactor":[
						0,
						0,
						0
					]
				},
				"KHR_materials_ior":{
					"ior":1.4500000476837158
				}
			},
			"name":"aiStandardSurface3SG.001",
			"pbrMetallicRoughness":{
				"baseColorFactor":[
					0.25979605317115784,
					0.25979605317115784,
					0.25979605317115784,
					1
				],
				"metallicFactor":0
			}
		},
		{
			"doubleSided":true,
			"extensions":{
				"KHR_materials_specular":{
					"specularColorFactor":[
						0,
						0,
						0
					]
				},
				"KHR_materials_ior":{
					"ior":1.4500000476837158
				}
			},
			"name":"aiStandardSurface4SG",
			"pbrMetallicRoughness":{
				"baseColorFactor":[
					0.0015472028171643615,
					0.0015472028171643615,
					0.0015472028171643615,
					1
				],
				"metallicFactor":0
			}
		}
	],
	"meshes":[
		{
			"name":"Microphone",
			"primitives":[
				{
					"attributes":{
						"POSITION":0,
						"NORMAL":1,
						"TEXCOORD_0":2
					},
					"indices":3,
					"material":0
				}
			]
		},
		{
			"name":"Plane",
			"primitives":[
				{
					"attributes":{
						"POSITION":4,
						"NORMAL":5,
						"TEXCOORD_0":6
					},
					"indices":7,
					"material":1
				}
			]
		},
		{
			"name":"Camera_to_SF",
			"primitives":[
				{
					"attributes":{
						"POSITION":8,
						"NORMAL":9,
						"TEXCOORD_0":10
					},
					"indices":11,
					"material":2
				},
				{
					"attributes":{
						"POSITION":12,
						"NORMAL":13,
						"TEXCOORD_0":14
					},
					"indices":15,
					"material":3
				},
				{
					"attributes":{
						"POSITION":16,
						"NORMAL":17,
						"TEXCOORD_0":18
					},
					"indices":19,
					"material":4
				},
				{
					"attributes":{
						"POSITION":20,
						"NORMAL":21,
						"TEXCOORD_0":22
					},
					"indices":23,
					"material":5
				}
			]
		}
	],
	"accessors":[
		{
			"bufferView":0,
			"componentType":5126,
			"count":591,
			"max":[
				4.146000385284424,
				0,
				0.009000000543892384
			],
			"min":[
				0,
				0,
				-0.6910000443458557
			],
			"type":"VEC3"
		},
		{
			"bufferView":1,
			"componentType":5126,
			"count":591,
			"type":"VEC3"
		},
		{
			"bufferView":2,
			"componentType":5126,
			"count":591,
			"type":"VEC2"
		},
		{
			"bufferView":3,
			"componentType":5123,
			"count":1755,
			"type":"SCALAR"
		},
		{
			"bufferView":4,
			"componentType":5126,
			"count":4,
			"max":[
				1,
				0,
				1
			],
			"min":[
				-1,
				0,
				-1
			],
			"type":"VEC3"
		},
		{
			"bufferView":5,
			"componentType":5126,
			"count":4,
			"type":"VEC3"
		},
		{
			"bufferView":6,
			"componentType":5126,
			"count":4,
			"type":"VEC2"
		},
		{
			"bufferView":7,
			"componentType":5123,
			"count":6,
			"type":"SCALAR"
		},
		{
			"bufferView":8,
			"componentType":5126,
			"count":3826,
			"max":[
				4.926878929138184,
				11.53501033782959,
				19.059274673461914
			],
			"min":[
				-8.486716270446777,
				-8.94860553741455,
				-9.888608932495117
			],
			"type":"VEC3"
		},
		{
			"bufferView":9,
			"componentType":5126,
			"count":3826,
			"type":"VEC3"
		},
		{
			"bufferView":10,
			"componentType":5126,
			"count":3826,
			"type":"VEC2"
		},
		{
			"bufferView":11,
			"componentType":5123,
			"count":15306,
			"type":"SCALAR"
		},
		{
			"bufferView":12,
			"componentType":5126,
			"count":8296,
			"max":[
				5.483222961425781,
				12.919845581054688,
				18.455020904541016
			],
			"min":[
				-5.483222961425781,
				-8.94860553741455,
				-9.292380332946777
			],
			"type":"VEC3"
		},
		{
			"bufferView":13,
			"componentType":5126,
			"count":8296,
			"type":"VEC3"
		},
		{
			"bufferView":14,
			"componentType":5126,
			"count":8296,
			"type":"VEC2"
		},
		{
			"bufferView":15,
			"componentType":5123,
			"count":42528,
			"type":"SCALAR"
		},
		{
			"bufferView":16,
			"componentType":5126,
			"count":323,
			"max":[
				0.9665060043334961,
				-2.2750000953674316,
				-3.995224952697754
			],
			"min":[
				-0.9665060043334961,
				-3.2702670097351074,
				-5.9282379150390625
			],
			"type":"VEC3"
		},
		{
			"bufferView":17,
			"componentType":5126,
			"count":323,
			"type":"VEC3"
		},
		{
			"bufferView":18,
			"componentType":5126,
			"count":323,
			"type":"VEC2"
		},
		{
			"bufferView":19,
			"componentType":5123,
			"count":1656,
			"type":"SCALAR"
		},
		{
			"bufferView":20,
			"componentType":5126,
			"count":2714,
			"max":[
				1.0357589721679688,
				13.454763412475586,
				18.949542999267578
			],
			"min":[
				-13.48173713684082,
				3.7467989921569824,
				5.690288066864014
			],
			"type":"VEC3"
		},
		{
			"bufferView":21,
			"componentType":5126,
			"count":2714,
			"type":"VEC3"
		},
		{
			"bufferView":22,
			"componentType":5126,
			"count":2714,
			"type":"VEC2"
		},
		{
			"bufferView":23,
			"componentType":5123,
			"count":11880,
			"type":"SCALAR"
		}
	],
	"bufferViews":[
		{
			"buffer":0,
			"byteLength":7092,
			"byteOffset":0,
			"target":34962
		},
		{
			"buffer":0,
			"byteLength":7092,
			"byteOffset":7092,
			"target":34962
		},
		{
			"buffer":0,
			"byteLength":4728,
			"byteOffset":14184,
			"target":34962
		},
		{
			"buffer":0,
			"byteLength":3510,
			"byteOffset":18912,
			"target":34963
		},
		{
			"buffer":0,
			"byteLength":48,
			"byteOffset":22424,
			"target":34962
		},
		{
			"buffer":0,
			"byteLength":48,
			"byteOffset":22472,
			"target":34962
		},
		{
			"buffer":0,
			"byteLength":32,
			"byteOffset":22520,
			"target":34962
		},
		{
			"buffer":0,
			"byteLength":12,
			"byteOffset":22552,
			"target":34963
		},
		{
			"buffer":0,
			"byteLength":45912,
			"byteOffset":22564,
			"target":34962
		},
		{
			"buffer":0,
			"byteLength":45912,
			"byteOffset":68476,
			"target":34962
		},
		{
			"buffer":0,
			"byteLength":30608,
			"byteOffset":114388,
			"target":34962
		},
		{
			"buffer":0,
			"byteLength":30612,
			"byteOffset":144996,
			"target":34963
		},
		{
			"buffer":0,
			"byteLength":99552,
			"byteOffset":175608,
			"target":34962
		},
		{
			"buffer":0,
			"byteLength":99552,
			"byteOffset":275160,
			"target":34962
		},
		{
			"buffer":0,
			"byteLength":66368,
			"byteOffset":374712,
			"target":34962
		},
		{
			"buffer":0,
			"byteLength":85056,
			"byteOffset":441080,
			"target":34963
		},
		{
			"buffer":0,
			"byteLength":3876,
			"byteOffset":526136,
			"target":34962
		},
		{
			"buffer":0,
			"byteLength":3876,
			"byteOffset":530012,
			"target":34962
		},
		{
			"buffer":0,
			"byteLength":2584,
			"byteOffset":533888,
			"target":34962
		},
		{
			"buffer":0,
			"byteLength":3312,
			"byteOffset":536472,
			"target":34963
		},
		{
			"buffer":0,
			"byteLength":32568,
			"byteOffset":539784,
			"target":34962
		},
		{
			"buffer":0,
			"byteLength":32568,
			"byteOffset":572352,
			"target":34962
		},
		{
			"buffer":0,
			"byteLength":21712,
			"byteOffset":604920,
			"target":34962
		},
		{
			"buffer":0,
			"byteLength":23760,
			"byteOffset":626632,
			"target":34963
		}
	],
	"buffers":[
		{
			"byteLength":650392,
			"uri":"data:application/octet-stream;base64,"
		}
	]
}
